<svg width="1440" height="297" viewBox="0 0 1440 297" fill="none" xmlns="http://www.w3.org/2000/svg">
<path fill-rule="evenodd" clip-rule="evenodd" d="M0 80.1662L40 73.1662C80 66.1662 160 51.1662 240 30.1662C320 8.16623 400 -20.8338 480 22.1662C560 66.1662 640 181.166 720 188.166C800 195.166 880 94.1662 960 51.1662C1040 8.16623 1120 22.1662 1200 30.1662C1280 37.1662 1360 37.1662 1400 37.1662H1440V296.166H1400C1360 296.166 1280 296.166 1200 296.166C1120 296.166 1040 296.166 960 296.166C880 296.166 800 296.166 720 296.166C640 296.166 560 296.166 480 296.166C400 296.166 320 296.166 240 296.166C160 296.166 80 296.166 40 296.166H0V80.1662Z" fill="white"/>
</svg>