<?xml version="1.0" encoding="UTF-8" standalone="no"?>
<!DOCTYPE svg PUBLIC "-//W3C//DTD SVG 1.1//EN" "http://www.w3.org/Graphics/SVG/1.1/DTD/svg11.dtd">
<svg version="1.1" xmlns="http://www.w3.org/2000/svg" xmlns:xlink="http://www.w3.org/1999/xlink" preserveAspectRatio="xMidYMid meet" viewBox="0 0 1440 600" width="1440" height="600"><defs><path d="M40 73.17C80 66.17 160 51.17 240 30.17C320 8.17 400 -20.83 480 22.17C560 66.17 640 181.17 720 188.17C800 195.17 880 94.17 960 51.17C1040 8.17 1120 22.17 1200 30.17C1280 37.17 1360 37.17 1400 37.17C1402.67 37.17 1416 37.17 1440 37.17L1440 296.17C1416 296.17 1402.67 296.17 1400 296.17C1360 296.17 1280 296.17 1200 296.17C1120 296.17 1040 296.17 960 296.17C880 296.17 800 296.17 720 296.17C640 296.17 560 296.17 480 296.17C400 296.17 320 296.17 240 296.17C160 296.17 80 296.17 40 296.17C37.33 296.17 24 296.17 0 296.17L0 80.17C24 75.97 37.33 73.63 40 73.17Z" id="lehERzeLg"></path><path d="M0 287.31L1440 287.31L1440 600L0 600L0 287.31Z" id="fI0ZgiJzV"></path></defs><g><g><g><use xlink:href="#lehERzeLg" opacity="1" fill="#ffffff" fill-opacity="1"></use><g><use xlink:href="#lehERzeLg" opacity="1" fill-opacity="0" stroke="#000000" stroke-width="1" stroke-opacity="0"></use></g></g><g><use xlink:href="#fI0ZgiJzV" opacity="1" fill="#ffffff" fill-opacity="1"></use></g></g></g></svg>